<svg width="1656" height="160" viewBox="0 0 1656 160" fill="none" xmlns="http://www.w3.org/2000/svg">
<path d="M1632.92 157.91V135.459H1655.37V157.91H1632.92Z" fill="white"/>
<path d="M1580.07 157.91V135.459H1602.52V157.91H1580.07Z" fill="white"/>
<path d="M1527.22 157.91V135.459H1549.67V157.91H1527.22Z" fill="white"/>
<path d="M1461.04 157.91V46.4062H1483.5V58.2227H1483.93C1491.3 49.4141 1500.97 45.0098 1512.93 45.0098C1521.88 45.153 1529.69 48.0176 1536.35 53.6035L1520.02 73.0469C1515.29 69.3229 1510.39 67.4609 1505.3 67.4609C1499.57 67.4609 1494.67 69.3229 1490.59 73.0469C1486 76.6992 1483.64 82.6074 1483.5 90.7715V157.91H1461.04Z" fill="white"/>
<path d="M1437.52 110.645H1368.02C1368.02 119.596 1370.6 126.4 1375.75 131.055C1380.55 135.781 1386.85 138.145 1394.66 138.145C1403.75 138.145 1411.88 134.528 1419.04 127.295L1435.26 141.152C1423.88 153.327 1410.49 159.342 1395.09 159.199C1389.22 159.199 1383.49 158.34 1377.9 156.621C1375.11 155.69 1372.39 154.437 1369.74 152.861C1366.94 151.501 1364.33 149.818 1361.89 147.812C1357.17 143.659 1353.34 137.858 1350.4 130.41C1347.18 123.249 1345.57 113.939 1345.57 102.48C1345.57 91.4518 1346.96 82.2852 1349.76 74.9805C1352.55 67.5326 1356.13 61.6602 1360.5 57.3633C1364.94 52.9948 1369.92 49.8438 1375.43 47.9102C1380.87 45.9766 1386.24 45.0098 1391.54 45.0098C1404.29 45.153 1415.07 49.3424 1423.88 57.5781C1432.83 65.957 1437.38 77.487 1437.52 92.168V110.645ZM1368.02 92.168H1415.07C1414.78 83.5026 1412.45 76.9499 1408.09 72.5098C1403.79 68.2845 1398.27 66.1719 1391.54 66.1719C1384.81 66.1719 1379.3 68.2845 1375 72.5098C1370.77 76.9499 1368.45 83.5026 1368.02 92.168Z" fill="white"/>
<path d="M1291.1 46.4062V12.4609H1313.55V46.4062H1329.88V63.4863H1313.55V128.477C1313.41 134.134 1316.06 136.891 1321.5 136.748H1329.88V157.91H1318.17C1310.3 157.91 1303.85 155.475 1298.84 150.605C1293.68 145.951 1291.1 139.219 1291.1 130.41V63.4863H1279.93V46.4062H1291.1Z" fill="white"/>
<path d="M1238.36 157.91V148.027H1237.93C1235.85 151.823 1232.63 154.616 1228.26 156.406C1223.96 158.268 1218.02 159.199 1210.43 159.199C1197.97 159.056 1188.37 155.762 1181.64 149.316C1174.55 143.014 1171.01 134.958 1171.01 125.146C1171.01 115.765 1174.09 107.995 1180.24 101.836C1186.4 95.5339 1195.43 92.3112 1207.31 92.168H1238.36V80.459C1238.5 70.6478 1230.88 65.8854 1215.48 66.1719C1209.89 66.1719 1205.49 66.7448 1202.27 67.8906C1198.9 69.2513 1196.25 71.543 1194.32 74.7656L1176.7 61.3379C1185.22 50.166 1197.79 44.7233 1214.4 45.0098C1228.44 44.8665 1239.65 47.5163 1248.03 52.959C1256.41 58.5449 1260.67 68.1413 1260.81 81.748V157.91H1238.36ZM1238.36 118.701V110.645H1211.5C1198.47 110.931 1192.02 115.407 1192.17 124.072C1192.17 127.868 1193.85 131.09 1197.22 133.74C1200.44 136.676 1205.77 138.145 1213.22 138.145C1222.6 138.288 1229.23 137.178 1233.1 134.814C1236.6 132.451 1238.36 127.08 1238.36 118.701Z" fill="white"/>
<path d="M1059.39 157.91V1.28906H1083.13V135.459H1159.4V157.91H1059.39Z" fill="white"/>
<path d="M902.129 123.857C911.224 133.382 922.969 138.145 937.363 138.145C943.809 138.145 949.072 136.891 953.154 134.385C957.236 131.878 959.277 128.369 959.277 123.857C959.277 119.847 958.06 117.054 955.625 115.479C953.118 113.831 949.788 112.936 945.635 112.793L925.869 111.074C916.488 110.215 908.861 107.064 902.988 101.621C896.973 96.3216 893.893 88.9095 893.75 79.3848C893.893 67.9264 897.939 59.3327 905.889 53.6035C913.623 47.8743 923.434 45.0098 935.322 45.0098C940.479 45.0098 945.098 45.332 949.18 45.9766C953.262 46.6927 957.093 47.6953 960.674 48.9844C967.549 51.7773 973.708 55.5371 979.15 60.2637L965.293 76.4844C960.996 73.4049 956.449 70.8626 951.65 68.8574C946.924 67.0671 941.481 66.1719 935.322 66.1719C928.304 66.1719 923.398 67.4251 920.605 69.9316C917.669 72.4382 916.201 75.6608 916.201 79.5996C916.058 82.1061 917.168 84.2904 919.531 86.1523C921.68 88.2292 925.475 89.554 930.918 90.127L949.395 91.5234C960.996 92.3828 969.375 95.8919 974.531 102.051C979.329 108.066 981.729 115.693 981.729 124.932C981.585 135.745 977.181 144.089 968.516 149.961C959.922 155.977 948.929 159.056 935.537 159.199C917.347 159.199 900.983 152.539 886.445 139.219L902.129 123.857Z" fill="white"/>
<path d="M875.273 110.645H805.771C805.771 119.596 808.35 126.4 813.506 131.055C818.304 135.781 824.606 138.145 832.412 138.145C841.507 138.145 849.635 134.528 856.797 127.295L873.018 141.152C861.631 153.327 848.239 159.342 832.842 159.199C826.969 159.199 821.24 158.34 815.654 156.621C812.861 155.69 810.14 154.437 807.49 152.861C804.697 151.501 802.083 149.818 799.648 147.812C794.922 143.659 791.09 137.858 788.154 130.41C784.932 123.249 783.32 113.939 783.32 102.48C783.32 91.4518 784.717 82.2852 787.51 74.9805C790.303 67.5326 793.883 61.6602 798.252 57.3633C802.692 52.9948 807.669 49.8438 813.184 47.9102C818.626 45.9766 823.997 45.0098 829.297 45.0098C842.044 45.153 852.822 49.3424 861.631 57.5781C870.583 65.957 875.13 77.487 875.273 92.168V110.645ZM805.771 92.168H852.822C852.536 83.5026 850.208 76.9499 845.84 72.5098C841.543 68.2845 836.029 66.1719 829.297 66.1719C822.565 66.1719 817.051 68.2845 812.754 72.5098C808.529 76.9499 806.201 83.5026 805.771 92.168Z" fill="white"/>
<path d="M728.857 46.4062V12.4609H751.309V46.4062H767.637V63.4863H751.309V128.477C751.165 134.134 753.815 136.891 759.258 136.748H767.637V157.91H755.928C748.05 157.91 741.605 155.475 736.592 150.605C731.436 145.951 728.857 139.219 728.857 130.41V63.4863H717.686V46.4062H728.857Z" fill="white"/>
<path d="M609.404 120.527V46.4062H631.855V112.793C631.855 120.312 633.968 126.185 638.193 130.41C642.347 134.635 647.646 136.748 654.092 136.748C660.537 136.748 665.801 134.635 669.883 130.41C674.036 126.185 676.113 120.312 676.113 112.793V46.4062H698.564V157.91H676.113V145.986H675.684C668.307 154.795 658.675 159.199 646.787 159.199C637.549 159.056 629.206 155.69 621.758 149.102C613.665 142.656 609.548 133.132 609.404 120.527Z" fill="white"/>
<path d="M491.24 157.91V46.4062H513.691V58.2227H514.121C521.497 49.4141 531.165 45.0098 543.125 45.0098C552.363 45.0098 560.814 48.2682 568.477 54.7852C576.068 61.3737 580.042 71.0417 580.4 83.7891V157.91H557.949V91.5234C557.949 83.7174 555.872 77.7734 551.719 73.6914C547.637 69.5378 542.373 67.4609 535.928 67.4609C529.482 67.4609 524.183 69.5378 520.029 73.6914C515.804 77.7734 513.691 83.7174 513.691 91.5234V157.91H491.24Z" fill="white"/>
<path d="M439.033 157.91V46.4062H461.484V157.91H439.033ZM439.033 23.7402V1.28906H461.484V23.7402H439.033Z" fill="white"/>
<path d="M273.711 157.91V1.28906H296.055L340.957 103.34L385 1.28906H407.451V157.91H383.711V60.2637H383.174L350.41 135.459H330.645L297.881 60.2637H297.451V157.91H273.711Z" fill="white"/>
<path d="M173.379 112.793V46.4062C172.949 30.7227 165.609 22.7376 151.357 22.4512C137.035 22.7376 129.73 30.7227 129.443 46.4062V112.793C129.73 128.62 137.035 136.605 151.357 136.748C165.609 136.605 172.949 128.62 173.379 112.793ZM106.992 114.082V45.0098C107.135 30.5436 111.755 19.4076 120.85 11.6016C129.372 3.86719 139.541 0 151.357 0C163.532 0 173.88 3.86719 182.402 11.6016C191.068 19.4076 195.544 30.5436 195.83 45.0098V114.082C195.544 128.477 191.068 139.577 182.402 147.383C173.88 155.117 163.532 159.056 151.357 159.199C139.541 159.056 129.372 155.117 120.85 147.383C111.755 139.577 107.135 128.477 106.992 114.082Z" fill="white"/>
<path d="M0 157.91V136.748L61.123 60.2637C63.4863 57.1842 65.0977 54.3197 65.957 51.6699C66.5299 49.1634 66.8164 46.8001 66.8164 44.5801C66.8164 38.7077 64.9902 33.5872 61.3379 29.2188C57.5423 24.8503 52.1712 22.5944 45.2246 22.4512C39.0658 22.4512 33.9453 24.4206 29.8633 28.3594C25.638 32.2982 23.1315 37.8483 22.3438 45.0098H0C0.572917 31.9759 4.94141 21.1979 13.1055 12.6758C21.3411 4.36849 31.4746 0.143229 43.5059 0C56.9694 0.143229 67.8906 4.4401 76.2695 12.8906C84.7917 21.2695 89.1243 31.9043 89.2676 44.7949C89.2676 55.1074 86.1165 64.2741 79.8145 72.2949L29.4336 135.459H89.2676V157.91H0Z" fill="white"/>
</svg>
