<svg width="3222" height="331" viewBox="0 0 3222 331" fill="none" xmlns="http://www.w3.org/2000/svg">
<path d="M3178.51 330.44C3153.87 330.44 3135.39 311.52 3135.39 286.88C3135.39 262.24 3153.43 243.76 3178.51 243.76C3203.59 243.76 3221.63 262.24 3221.63 286.88C3221.63 311.52 3203.15 330.44 3178.51 330.44Z" fill="black"/>
<path d="M3079.25 330.44C3054.61 330.44 3036.13 311.52 3036.13 286.88C3036.13 262.24 3054.17 243.76 3079.25 243.76C3104.33 243.76 3122.37 262.24 3122.37 286.88C3122.37 311.52 3103.89 330.44 3079.25 330.44Z" fill="black"/>
<path d="M2979.99 330.44C2955.35 330.44 2936.87 311.52 2936.87 286.88C2936.87 262.24 2954.91 243.76 2979.99 243.76C3005.07 243.76 3023.11 262.24 3023.11 286.88C3023.11 311.52 3004.63 330.44 2979.99 330.44Z" fill="black"/>
<path d="M2948.27 88.4404V162.8H2930.67C2911.75 162.8 2906.91 170.28 2906.91 184.8V325.16H2836.07V89.7604H2906.91V106.04C2915.71 94.6004 2927.15 88.4404 2948.27 88.4404Z" fill="black"/>
<path d="M2815.53 230.56H2658.45C2661.53 253 2679.13 266.64 2706.41 266.64C2731.49 266.64 2746.01 252.12 2754.37 238.92L2808.49 270.6C2795.29 297.88 2764.49 329.12 2705.97 329.12C2634.25 329.12 2584.97 283.8 2584.97 208.56C2584.97 138.16 2632.05 85.7998 2700.69 85.7998C2772.85 85.7998 2816.41 132.88 2816.41 203.28C2816.41 210.32 2816.41 218.68 2815.53 230.56ZM2700.69 144.76C2676.05 144.76 2661.97 161.92 2660.21 180.84H2742.93C2741.17 161.48 2726.21 144.76 2700.69 144.76Z" fill="black"/>
<path d="M2542.83 52.3604V89.7603H2574.07V149.16H2542.83V242.88C2542.83 258.72 2549.43 264 2562.19 264H2574.07V323.4C2574.07 323.4 2563.07 327.8 2538.43 327.8C2493.55 327.8 2471.99 304.48 2471.99 264V149.16H2451.31V89.7603H2471.99V52.3604H2542.83Z" fill="black"/>
<path d="M2248.1 247.28C2247.66 200.64 2279.34 169.84 2328.18 169.84C2347.54 169.84 2360.74 174.24 2366.9 178.2V168.52C2366.9 155.32 2361.62 143 2344.02 143C2327.3 143 2322.46 154 2322.46 163.24H2256.9C2258.22 115.72 2285.94 87.1201 2343.58 87.1201C2417.06 87.1201 2436.86 126.28 2436.86 179.08V325.16H2378.78V312.4C2367.78 322.08 2352.82 327.8 2330.38 327.8C2284.18 327.8 2248.54 297.44 2248.1 247.28ZM2314.54 245.52C2314.54 260.92 2325.98 271.92 2341.38 271.92C2356.78 271.92 2368.22 260.92 2368.22 245.52C2368.22 229.68 2356.34 219.56 2340.94 219.56C2325.54 219.56 2314.54 230.56 2314.54 245.52Z" fill="black"/>
<path d="M2232.36 325.16H2089.36V20.6797H2162.84V256.52H2232.36V325.16Z" fill="black"/>
<path d="M1891.83 154.88C1891.83 163.68 1897.56 168.52 1910.76 171.16C1920.88 173.36 1931.44 175.12 1939.36 177.32C1980.28 188.76 1998.76 207.68 1998.76 250.36C1998.76 305.8 1956.08 328.24 1909 328.24C1839.48 328.24 1819.24 288.64 1821 247.72H1888.32C1887.88 259.6 1891.84 272.36 1909.88 272.36C1921.76 272.36 1930.12 267.08 1930.12 257.84C1930.12 248.16 1925.28 243.76 1910.76 240.68C1895.8 237.6 1887.44 235.4 1875.12 231.44C1840.8 219.56 1824.95 195.36 1824.95 160.16C1824.95 114.4 1861.92 86.6797 1910.32 86.6797C1960.48 86.6797 1994.36 109.12 1994.8 163.24H1930.12C1929.68 149.16 1923.08 140.36 1909 140.36C1898.44 140.36 1891.83 146.08 1891.83 154.88Z" fill="black"/>
<path d="M1809.2 230.56H1652.12C1655.2 253 1672.8 266.64 1700.08 266.64C1725.16 266.64 1739.68 252.12 1748.04 238.92L1802.16 270.6C1788.96 297.88 1758.16 329.12 1699.64 329.12C1627.92 329.12 1578.64 283.8 1578.64 208.56C1578.64 138.16 1625.72 85.7998 1694.36 85.7998C1766.52 85.7998 1810.08 132.88 1810.08 203.28C1810.08 210.32 1810.08 218.68 1809.2 230.56ZM1694.36 144.76C1669.72 144.76 1655.64 161.92 1653.88 180.84H1736.6C1734.84 161.48 1719.88 144.76 1694.36 144.76Z" fill="black"/>
<path d="M1536.5 52.3604V89.7603H1567.74V149.16H1536.5V242.88C1536.5 258.72 1543.1 264 1555.86 264H1567.74V323.4C1567.74 323.4 1556.74 327.8 1532.1 327.8C1487.22 327.8 1465.66 304.48 1465.66 264V149.16H1444.98V89.7603H1465.66V52.3604H1536.5Z" fill="black"/>
<path d="M1305.45 89.7598V235.84C1305.45 253 1312.49 264.44 1329.21 264.44C1345.49 264.44 1354.29 253 1354.29 235.84V89.7598H1425.13V325.16H1354.73V310.2C1349.45 315.92 1334.49 327.8 1308.09 327.8C1255.29 327.8 1234.61 293.04 1234.61 244.2V89.7598H1305.45Z" fill="black"/>
<path d="M1137.35 325.16V178.64C1137.35 161.48 1128.99 150.04 1112.27 150.04C1095.99 150.04 1087.19 161.04 1087.19 178.2V325.16H1016.35V89.7601H1087.19V104.72C1092.47 99.8801 1106.11 87.1201 1134.71 87.1201C1190.15 87.1201 1208.19 124.96 1208.19 170.28V325.16H1137.35Z" fill="black"/>
<path d="M988.357 89.76V325.16H917.517V89.76H988.357ZM951.837 80.52C929.397 80.52 911.797 62.48 911.797 40.48C911.797 18.04 929.397 0 951.837 0C974.277 0 992.317 18.04 992.317 40.48C992.317 62.48 974.277 80.52 951.837 80.52Z" fill="black"/>
<path d="M815.059 111.32L742.899 325.16H673.379L601.219 111.32V325.16H533.459V20.6797H643.459L710.779 227.04L778.099 20.6797H885.899V325.16H815.059V111.32Z" fill="black"/>
<path d="M360.728 118.36C360.728 99.88 353.248 84.92 332.128 84.92C311.008 84.92 303.528 99.88 303.528 118.36V227.48C303.528 245.96 311.008 260.92 332.128 260.92C353.248 260.92 360.728 245.96 360.728 227.48V118.36ZM434.208 118.36V226.6C434.208 289.52 398.128 330.88 331.248 330.88C261.288 330.88 230.048 290.4 230.048 226.6V118.36C230.048 55.8799 262.608 14.96 332.128 14.96C399.448 14.96 434.208 56.32 434.208 118.36Z" fill="black"/>
<path d="M204.662 325.16H1.38203V260.92L95.102 168.08C114.022 149.16 127.222 134.2 127.222 113.96C127.222 95.04 116.222 84.92 99.062 84.92C77.942 84.92 72.662 103.4 72.662 114.4H0.0620295C-1.25797 73.48 18.102 14.96 99.502 14.96C168.582 14.96 202.902 57.2 202.902 110C202.902 153.12 182.662 177.76 154.502 204.6L97.742 259.6H204.662V325.16Z" fill="black"/>
</svg>
