<svg width="246" height="94" viewBox="0 0 246 94" fill="none" xmlns="http://www.w3.org/2000/svg">
<rect width="246" height="94" rx="40" fill="#8DB9FF" fill-opacity="0.7"/>
<path d="M47.8033 27.2809V44.118H52.2404C53.6175 44.118 54.714 43.941 55.5301 43.5871C56.3461 43.1826 56.9836 42.6264 57.4426 41.9185C57.8506 41.2107 58.1311 40.3511 58.2842 39.3399C58.4372 38.2781 58.5137 37.0646 58.5137 35.6994C58.5137 34.3343 58.4372 33.1461 58.2842 32.1348C58.1311 31.073 57.8251 30.1629 57.3661 29.4045C56.3971 27.9888 54.561 27.2809 51.8579 27.2809H47.8033ZM40 74V20H52.5464C61.7268 20 66.3169 25.2837 66.3169 35.8511C66.3169 39.0365 65.8069 41.7416 64.7869 43.9663C63.8179 46.191 62.0838 47.986 59.5847 49.3511L68 74H59.7377L52.4699 50.9438H47.8033V74H40Z" fill="white"/>
<path d="M94 57.3931H78.7171V62.578C78.7171 63.7803 79.045 64.7071 79.7007 65.3584C80.4068 66.0096 81.3399 66.3353 82.5 66.3353C83.9627 66.3353 84.9211 65.9094 85.375 65.0578C85.8794 64.2062 86.182 63.3545 86.2829 62.5029H94C94 65.8593 92.966 68.5645 90.898 70.6185C89.8893 71.6705 88.6787 72.4971 87.2664 73.0983C85.8542 73.6994 84.2653 74 82.5 74C80.0789 74 78.011 73.499 76.2961 72.4971C74.6316 71.4952 73.3454 70.1676 72.4375 68.5145C71.8827 67.5125 71.5044 66.3603 71.3026 65.0578C71.1009 63.7553 71 62.3276 71 60.7746V48.2254C71 46.6724 71.1009 45.2447 71.3026 43.9422C71.5044 42.6397 71.8827 41.4875 72.4375 40.4855C73.3454 38.8324 74.6316 37.5048 76.2961 36.5029C78.011 35.501 80.0789 35 82.5 35C84.2653 35 85.8542 35.3006 87.2664 35.9017C88.7292 36.5029 89.9649 37.3295 90.9737 38.3815C92.9912 40.6358 94 43.4663 94 46.8728V57.3931ZM78.7171 51.3815H86.2829V47.0231C86.2829 45.5703 85.9298 44.4933 85.2237 43.7919C84.568 43.0405 83.6601 42.6647 82.5 42.6647C81.3399 42.6647 80.4068 43.0405 79.7007 43.7919C79.045 44.4933 78.7171 45.5703 78.7171 47.0231V51.3815Z" fill="white"/>
<path d="M113.026 46.1214C112.974 44.8189 112.526 43.842 111.684 43.1908C110.895 42.5395 109.974 42.2139 108.921 42.2139C107.658 42.2139 106.684 42.6146 106 43.4162C105.316 44.1676 104.974 45.0443 104.974 46.0462C104.974 46.7476 105.158 47.4489 105.526 48.1503C105.895 48.8015 106.842 49.4027 108.368 49.9538L113.105 51.7572C116.105 52.8593 118.158 54.3622 119.263 56.2659C120.421 58.1696 121 60.2486 121 62.5029C121 64.106 120.684 65.6089 120.053 67.0116C119.474 68.3642 118.658 69.5665 117.605 70.6185C116.553 71.6705 115.289 72.4971 113.816 73.0983C112.342 73.6994 110.737 74 109 74C105.737 74 103 73.0231 100.789 71.0694C99.6842 70.1175 98.7895 68.9403 98.1053 67.5376C97.4211 66.0848 97.0526 64.4066 97 62.5029H104.579C104.737 63.5549 105.105 64.5318 105.684 65.4335C106.316 66.3353 107.395 66.7861 108.921 66.7861C110.079 66.7861 111.105 66.4355 112 65.7341C112.947 64.9827 113.421 63.9557 113.421 62.6532C113.421 61.6012 113.132 60.6994 112.553 59.948C111.974 59.1965 110.921 58.5453 109.395 57.9942L105.526 56.6416C103 55.7399 101 54.4123 99.5263 52.659C98.1053 50.8555 97.3947 48.6763 97.3947 46.1214C97.3947 44.5183 97.7105 43.0405 98.3421 41.6879C98.9737 40.2852 99.8421 39.0828 100.947 38.0809C102 37.079 103.237 36.3276 104.658 35.8266C106.079 35.2755 107.605 35 109.237 35C110.868 35 112.368 35.2755 113.737 35.8266C115.158 36.3776 116.368 37.1541 117.368 38.1561C118.368 39.158 119.158 40.3603 119.737 41.763C120.316 43.1156 120.605 44.5684 120.605 46.1214H113.026Z" fill="white"/>
<path d="M127.778 35.649V24H135.333V35.649H140V41.7005H135.333V62.9561C135.333 63.8638 135.407 64.5698 135.556 65.0741C135.753 65.5784 136.049 65.9566 136.444 66.2088C136.84 66.4609 137.309 66.6122 137.852 66.6626C138.444 66.7131 139.16 66.7383 140 66.7383V74H136.889C135.16 74 133.704 73.7226 132.519 73.1679C131.383 72.6132 130.469 71.9072 129.778 71.0499C129.086 70.1926 128.568 69.2345 128.222 68.1755C127.926 67.0661 127.778 66.0071 127.778 64.9985V41.7005H124V35.649H127.778Z" fill="white"/>
<path d="M158.481 73.5491V69.6416H158.333C157.35 71.0443 156.343 72.1214 155.311 72.8728C154.328 73.6243 152.927 74 151.109 74C150.224 74 149.315 73.8497 148.381 73.5491C147.497 73.2987 146.637 72.7977 145.801 72.0462C144.966 71.3449 144.278 70.343 143.737 69.0405C143.246 67.6879 143 65.9595 143 63.8555C143 61.7013 143.172 59.8227 143.516 58.2197C143.86 56.5665 144.499 55.1888 145.433 54.0867C146.317 53.0347 147.521 52.2582 149.045 51.7572C150.568 51.2062 152.51 50.9306 154.869 50.9306C155.114 50.9306 155.385 50.9306 155.679 50.9306C155.974 50.9306 156.245 50.9557 156.49 51.0058C156.736 51.0559 157.031 51.0809 157.375 51.0809C157.719 51.0809 158.088 51.106 158.481 51.1561V47.1734C158.481 45.8709 158.21 44.7938 157.67 43.9422C157.129 43.0906 156.146 42.6647 154.721 42.6647C153.738 42.6647 152.829 42.9904 151.994 43.6416C151.207 44.2929 150.691 45.2447 150.446 46.4971H143.147C143.344 43.0906 144.474 40.3353 146.538 38.2312C147.521 37.2293 148.701 36.4528 150.077 35.9017C151.453 35.3006 153.001 35 154.721 35C156.294 35 157.768 35.2505 159.144 35.7514C160.52 36.2524 161.724 37.0039 162.756 38.0058C163.739 39.0077 164.526 40.2601 165.115 41.763C165.705 43.2659 166 45.0193 166 47.0231V73.5491H158.481ZM158.481 57.1676C157.645 57.0173 156.957 56.9422 156.417 56.9422C154.795 56.9422 153.394 57.343 152.215 58.1445C151.084 58.896 150.519 60.2987 150.519 62.3526C150.519 63.8054 150.863 64.9827 151.551 65.8844C152.239 66.7861 153.198 67.237 154.426 67.237C155.704 67.237 156.687 66.8112 157.375 65.9595C158.112 65.1079 158.481 63.9056 158.481 62.3526V57.1676Z" fill="white"/>
<path d="M169 74V35.4561H176.747V39.5614C178.316 38.1423 179.861 37.0273 181.38 36.2164C182.899 35.4055 184.772 35 187 35V43.2105C186.241 42.9064 185.456 42.7544 184.646 42.7544C183.835 42.7544 182.949 42.9064 181.987 43.2105C181.076 43.4639 180.241 43.9201 179.481 44.5789C178.671 45.2378 178.013 46.0994 177.506 47.1637C177 48.2281 176.747 49.5458 176.747 51.117V74H169Z" fill="white"/>
<path d="M193.778 35.649V24H201.333V35.649H206V41.7005H201.333V62.9561C201.333 63.8638 201.407 64.5698 201.556 65.0741C201.753 65.5784 202.049 65.9566 202.444 66.2088C202.84 66.4609 203.309 66.6122 203.852 66.6626C204.444 66.7131 205.16 66.7383 206 66.7383V74H202.889C201.16 74 199.704 73.7226 198.519 73.1679C197.383 72.6132 196.469 71.9072 195.778 71.0499C195.086 70.1926 194.568 69.2345 194.222 68.1755C193.926 67.0661 193.778 66.0071 193.778 64.9985V41.7005H190V35.649H193.778Z" fill="white"/>
</svg>
