<svg width="1367" height="331" viewBox="0 0 1367 331" fill="none" xmlns="http://www.w3.org/2000/svg">
<path d="M1323.76 330.44C1299.12 330.44 1280.64 311.52 1280.64 286.88C1280.64 262.24 1298.68 243.76 1323.76 243.76C1348.84 243.76 1366.88 262.24 1366.88 286.88C1366.88 311.52 1348.4 330.44 1323.76 330.44Z" fill="black"/>
<path d="M1224.5 330.44C1199.86 330.44 1181.38 311.52 1181.38 286.88C1181.38 262.24 1199.42 243.76 1224.5 243.76C1249.58 243.76 1267.62 262.24 1267.62 286.88C1267.62 311.52 1249.14 330.44 1224.5 330.44Z" fill="black"/>
<path d="M1125.25 330.44C1100.61 330.44 1082.13 311.52 1082.13 286.88C1082.13 262.24 1100.17 243.76 1125.25 243.76C1150.33 243.76 1168.37 262.24 1168.37 286.88C1168.37 311.52 1149.89 330.44 1125.25 330.44Z" fill="black"/>
<path d="M996.212 325.161V309.76C980.372 322.96 957.052 329.12 934.172 329.12C860.252 329.12 812.292 278.521 812.292 208.12C812.292 140.8 859.812 85.8005 931.092 85.8005C957.492 85.8005 976.412 91.5205 990.492 100.32V3.52051H1061.33V325.161H996.212ZM882.692 207.24C882.692 240.24 905.132 265.76 937.692 265.76C972.452 265.76 992.692 239.8 992.692 207.24C992.692 174.24 971.132 148.281 937.692 148.281C903.372 148.281 882.692 174.24 882.692 207.24Z" fill="black"/>
<path d="M798.789 230.56H641.709C644.789 253 662.389 266.64 689.669 266.64C714.749 266.64 729.269 252.12 737.629 238.92L791.749 270.6C778.549 297.88 747.749 329.12 689.229 329.12C617.509 329.12 568.229 283.8 568.229 208.56C568.229 138.16 615.309 85.7998 683.949 85.7998C756.109 85.7998 799.669 132.88 799.669 203.28C799.669 210.32 799.669 218.68 798.789 230.56ZM683.949 144.76C659.309 144.76 645.229 161.92 643.469 180.84H726.189C724.429 161.48 709.469 144.76 683.949 144.76Z" fill="black"/>
<path d="M547.281 3.52051V325.161H476.441V3.52051H547.281Z" fill="black"/>
<path d="M448.453 89.76V325.16H377.613V89.76H448.453ZM411.933 80.52C389.493 80.52 371.893 62.48 371.893 40.48C371.893 18.04 389.493 0 411.933 0C434.373 0 452.413 18.04 452.413 40.48C452.413 62.48 434.373 80.52 411.933 80.52Z" fill="black"/>
<path d="M161.755 247.28C161.315 200.64 192.995 169.84 241.835 169.84C261.195 169.84 274.395 174.24 280.555 178.2V168.52C280.555 155.32 275.275 143 257.675 143C240.955 143 236.115 154 236.115 163.24H170.555C171.875 115.72 199.595 87.1201 257.235 87.1201C330.715 87.1201 350.515 126.28 350.515 179.08V325.16H292.435V312.4C281.435 322.08 266.475 327.8 244.035 327.8C197.835 327.8 162.195 297.44 161.755 247.28ZM228.195 245.52C228.195 260.92 239.635 271.92 255.035 271.92C270.435 271.92 281.875 260.92 281.875 245.52C281.875 229.68 269.995 219.56 254.595 219.56C239.195 219.56 228.195 230.56 228.195 245.52Z" fill="black"/>
<path d="M143.88 204.16H73.48V325.16H0V20.6797H146.08V89.3197H73.48V136.4H143.88V204.16Z" fill="black"/>
</svg>
