<svg width="1428" height="204" viewBox="0 0 1428 204" fill="none" xmlns="http://www.w3.org/2000/svg">
<path d="M1407.55 119.238L1399.17 1.28906H1427.31L1418.72 119.238H1407.55ZM1402.07 157.91V135.459H1424.52V157.91H1402.07Z" fill="white"/>
<path d="M1325.59 153.506L1285.62 46.4062H1309.37L1335.79 124.502H1336.22L1362.54 46.4062H1386.39L1338.37 181.006C1335.29 189.385 1331.03 195.186 1325.59 198.408C1320.07 201.488 1313.84 203.027 1306.89 203.027H1299.48V181.865H1306.04C1308.97 181.865 1311.69 181.077 1314.2 179.502C1316.71 177.855 1318.46 175.42 1319.46 172.197L1325.59 153.506Z" fill="white"/>
<path d="M1254.04 146.201C1246.67 154.58 1237.03 158.913 1225.15 159.199C1218.41 159.056 1212.65 157.66 1207.85 155.01C1202.84 152.432 1198.65 148.994 1195.28 144.697C1192.2 141.188 1190.16 136.426 1189.16 130.41C1187.94 124.681 1187.33 115.228 1187.33 102.051C1187.33 88.6589 1187.94 79.1341 1189.16 73.4766C1190.16 67.7474 1192.2 63.1283 1195.28 59.6191C1201.59 50.2376 1211.54 45.3678 1225.15 45.0098C1230.88 45.0098 1236.18 46.1914 1241.04 48.5547C1245.56 51.0612 1249.89 54.2839 1254.04 58.2227V1.28906H1276.49V157.91H1254.04V146.201ZM1232.02 67.4609C1226.72 67.4609 1222.68 68.3561 1219.88 70.1465C1216.8 72.0801 1214.55 74.7298 1213.12 78.0957C1211.75 81.4616 1210.86 85.1139 1210.43 89.0527C1210 93.278 1209.79 97.6107 1209.79 102.051C1209.79 106.276 1210 110.394 1210.43 114.404C1210.86 118.63 1211.75 122.425 1213.12 125.791C1214.55 129.014 1216.8 131.663 1219.88 133.74C1222.68 135.745 1226.72 136.748 1232.02 136.748C1237.32 136.748 1241.51 135.674 1244.59 133.525C1247.67 131.449 1249.78 128.727 1250.93 125.361C1252.36 121.995 1253.33 118.236 1253.83 114.082C1253.97 110 1254.04 105.99 1254.04 102.051C1254.04 97.7539 1253.97 93.6361 1253.83 89.6973C1253.33 85.7585 1252.36 82.1061 1250.93 78.7402C1249.78 75.3743 1247.67 72.653 1244.59 70.5762C1241.51 68.4993 1237.32 67.4609 1232.02 67.4609Z" fill="white"/>
<path d="M1135.88 157.91V148.027H1135.45C1133.37 151.823 1130.15 154.616 1125.78 156.406C1121.48 158.268 1115.54 159.199 1107.95 159.199C1095.49 159.056 1085.89 155.762 1079.16 149.316C1072.07 143.014 1068.53 134.958 1068.53 125.146C1068.53 115.765 1071.6 107.995 1077.76 101.836C1083.92 95.5339 1092.95 92.3112 1104.83 92.168H1135.88V80.459C1136.02 70.6478 1128.4 65.8854 1113 66.1719C1107.41 66.1719 1103.01 66.7448 1099.79 67.8906C1096.42 69.2513 1093.77 71.543 1091.84 74.7656L1074.22 61.3379C1082.74 50.166 1095.31 44.7233 1111.92 45.0098C1125.96 44.8665 1137.17 47.5163 1145.55 52.959C1153.93 58.5449 1158.19 68.1413 1158.33 81.748V157.91H1135.88ZM1135.88 118.701V110.645H1109.02C1095.99 110.931 1089.54 115.407 1089.69 124.072C1089.69 127.868 1091.37 131.09 1094.74 133.74C1097.96 136.676 1103.29 138.145 1110.74 138.145C1120.12 138.288 1126.75 137.178 1130.62 134.814C1134.12 132.451 1135.88 127.08 1135.88 118.701Z" fill="white"/>
<path d="M1053.81 110.645H984.307C984.307 119.596 986.885 126.4 992.041 131.055C996.839 135.781 1003.14 138.145 1010.95 138.145C1020.04 138.145 1028.17 134.528 1035.33 127.295L1051.55 141.152C1040.17 153.327 1026.77 159.342 1011.38 159.199C1005.5 159.199 999.775 158.34 994.189 156.621C991.396 155.69 988.675 154.437 986.025 152.861C983.232 151.501 980.618 149.818 978.184 147.812C973.457 143.659 969.626 137.858 966.689 130.41C963.467 123.249 961.855 113.939 961.855 102.48C961.855 91.4518 963.252 82.2852 966.045 74.9805C968.838 67.5326 972.419 61.6602 976.787 57.3633C981.227 52.9948 986.204 49.8438 991.719 47.9102C997.161 45.9766 1002.53 45.0098 1007.83 45.0098C1020.58 45.153 1031.36 49.3424 1040.17 57.5781C1049.12 65.957 1053.67 77.487 1053.81 92.168V110.645ZM984.307 92.168H1031.36C1031.07 83.5026 1028.74 76.9499 1024.38 72.5098C1020.08 68.2845 1014.56 66.1719 1007.83 66.1719C1001.1 66.1719 995.586 68.2845 991.289 72.5098C987.064 76.9499 984.736 83.5026 984.307 92.168Z" fill="white"/>
<path d="M858.838 22.4512V69.9316H894.717C903.597 69.7884 910.257 67.2103 914.697 62.1973C919.066 57.5423 921.25 51.8132 921.25 45.0098C921.107 36.8457 918.493 30.9375 913.408 27.2852C909.398 24.0625 903.597 22.4512 896.006 22.4512H858.838ZM835.098 157.91V1.28906H896.221C909.255 1.28906 919.889 4.72656 928.125 11.6016C938.079 19.4076 943.271 30.5436 943.701 45.0098C943.415 66.2793 933.317 80.7454 913.408 88.4082L949.717 157.91H921.465L889.131 90.9863H858.838V157.91H835.098Z" fill="white"/>
<path d="M756.68 110.645H687.178C687.178 119.596 689.756 126.4 694.912 131.055C699.71 135.781 706.012 138.145 713.818 138.145C722.913 138.145 731.042 134.528 738.203 127.295L754.424 141.152C743.037 153.327 729.645 159.342 714.248 159.199C708.376 159.199 702.646 158.34 697.061 156.621C694.268 155.69 691.546 154.437 688.896 152.861C686.104 151.501 683.49 149.818 681.055 147.812C676.328 143.659 672.497 137.858 669.561 130.41C666.338 123.249 664.727 113.939 664.727 102.48C664.727 91.4518 666.123 82.2852 668.916 74.9805C671.709 67.5326 675.29 61.6602 679.658 57.3633C684.098 52.9948 689.076 49.8438 694.59 47.9102C700.033 45.9766 705.404 45.0098 710.703 45.0098C723.451 45.153 734.229 49.3424 743.037 57.5781C751.989 65.957 756.536 77.487 756.68 92.168V110.645ZM687.178 92.168H734.229C733.942 83.5026 731.615 76.9499 727.246 72.5098C722.949 68.2845 717.435 66.1719 710.703 66.1719C703.971 66.1719 698.457 68.2845 694.16 72.5098C689.935 76.9499 687.607 83.5026 687.178 92.168Z" fill="white"/>
<path d="M555.908 157.91V1.28906H578.359V58.2227C582.441 54.2839 586.917 51.0612 591.787 48.5547C596.299 46.1914 601.419 45.0098 607.148 45.0098C620.827 45.3678 630.817 50.2376 637.119 59.6191C640.199 63.1283 642.311 67.7474 643.457 73.4766C644.531 79.1341 645.068 88.6589 645.068 102.051C645.068 115.228 644.531 124.681 643.457 130.41C642.311 136.426 640.199 141.188 637.119 144.697C634.04 148.994 629.993 152.432 624.98 155.01C620.039 157.66 614.095 159.056 607.148 159.199C595.404 158.913 585.807 154.58 578.359 146.201V157.91H555.908ZM600.381 67.4609C595.368 67.4609 591.393 68.4993 588.457 70.5762C585.378 72.653 583.122 75.3743 581.689 78.7402C580.329 82.1061 579.434 85.7585 579.004 89.6973C578.574 93.6361 578.359 97.7539 578.359 102.051C578.359 105.99 578.574 110 579.004 114.082C579.434 118.236 580.329 121.995 581.689 125.361C583.122 128.727 585.378 131.449 588.457 133.525C591.393 135.674 595.368 136.748 600.381 136.748C605.68 136.748 609.87 135.745 612.949 133.74C616.029 131.663 618.213 129.014 619.502 125.791C620.934 122.425 621.901 118.63 622.402 114.404C622.546 110.394 622.617 106.276 622.617 102.051C622.617 97.6107 622.546 93.278 622.402 89.0527C621.901 85.1139 620.934 81.4616 619.502 78.0957C618.213 74.7298 616.029 72.0801 612.949 70.1465C609.87 68.3561 605.68 67.4609 600.381 67.4609Z" fill="white"/>
<path d="M437.744 120.527V46.4062H460.195V112.793C460.195 120.312 462.308 126.185 466.533 130.41C470.687 134.635 475.986 136.748 482.432 136.748C488.877 136.748 494.141 134.635 498.223 130.41C502.376 126.185 504.453 120.312 504.453 112.793V46.4062H526.904V157.91H504.453V145.986H504.023C496.647 154.795 487.015 159.199 475.127 159.199C465.889 159.056 457.546 155.69 450.098 149.102C442.005 142.656 437.887 133.132 437.744 120.527Z" fill="white"/>
<path d="M397.783 114.082H422.92C419.482 128.62 412.93 139.792 403.262 147.598C393.307 155.332 381.527 159.199 367.92 159.199C355.602 158.913 345.326 155.905 337.09 150.176C328.711 144.661 322.624 138.288 318.828 131.055C317.682 128.691 316.644 126.436 315.713 124.287C314.854 122.067 314.137 119.274 313.564 115.908C312.49 109.606 311.953 97.5033 311.953 79.5996C311.953 61.4095 312.49 49.235 313.564 43.0762C314.71 36.9173 316.465 31.9401 318.828 28.1445C322.624 20.9115 328.711 14.4661 337.09 8.80859C345.326 3.07943 355.602 0.143229 367.92 0C383.031 0.143229 395.348 4.61914 404.873 13.4277C414.398 22.3079 420.413 33.3008 422.92 46.4062H397.783C395.85 40.1042 392.34 34.7331 387.256 30.293C381.956 26.0677 375.511 23.8835 367.92 23.7402C362.334 23.8835 357.536 24.9935 353.525 27.0703C349.443 29.2188 346.149 31.9043 343.643 35.127C340.563 38.4928 338.522 42.8255 337.52 48.125C336.374 53.7109 335.801 64.2025 335.801 79.5996C335.801 94.9967 336.374 105.417 337.52 110.859C338.522 116.302 340.563 120.706 343.643 124.072C346.149 127.295 349.443 129.909 353.525 131.914C357.536 134.277 362.334 135.459 367.92 135.459C381.24 135.459 391.195 128.333 397.783 114.082Z" fill="white"/>
<path d="M238.906 110.645H169.404C169.404 119.596 171.982 126.4 177.139 131.055C181.937 135.781 188.239 138.145 196.045 138.145C205.14 138.145 213.268 134.528 220.43 127.295L236.65 141.152C225.264 153.327 211.872 159.342 196.475 159.199C190.602 159.199 184.873 158.34 179.287 156.621C176.494 155.69 173.773 154.437 171.123 152.861C168.33 151.501 165.716 149.818 163.281 147.812C158.555 143.659 154.723 137.858 151.787 130.41C148.564 123.249 146.953 113.939 146.953 102.48C146.953 91.4518 148.35 82.2852 151.143 74.9805C153.936 67.5326 157.516 61.6602 161.885 57.3633C166.325 52.9948 171.302 49.8438 176.816 47.9102C182.259 45.9766 187.63 45.0098 192.93 45.0098C205.677 45.153 216.455 49.3424 225.264 57.5781C234.215 65.957 238.763 77.487 238.906 92.168V110.645ZM169.404 92.168H216.455C216.169 83.5026 213.841 76.9499 209.473 72.5098C205.176 68.2845 199.661 66.1719 192.93 66.1719C186.198 66.1719 180.684 68.2845 176.387 72.5098C172.161 76.9499 169.834 83.5026 169.404 92.168Z" fill="white"/>
<path d="M120.205 125.146L136.748 139.863C131.878 145.449 126.149 149.997 119.561 153.506C112.972 157.158 105.345 159.056 96.6797 159.199C83.5026 159.199 71.9368 154.723 61.9824 145.771C51.6699 136.82 46.3704 122.318 46.084 102.266C46.3704 81.9987 51.6699 67.3177 61.9824 58.2226C71.9368 49.2708 83.5026 44.8665 96.6797 45.0097C105.345 45.153 112.972 46.9433 119.561 50.3808C126.149 53.8899 131.878 58.5807 136.748 64.4531L120.205 79.1699C114.548 71.6504 106.992 67.7474 97.5391 67.4609C78.4896 67.1744 68.8216 78.776 68.5352 102.266C68.8216 125.612 78.4896 137.106 97.5391 136.748C106.992 136.605 114.548 132.738 120.205 125.146Z" fill="white"/>
<path d="M0 157.91V1.28906H23.7402V157.91H0Z" fill="white"/>
</svg>
