<svg width="2950" height="399" viewBox="0 0 2950 399" fill="none" xmlns="http://www.w3.org/2000/svg">
<path d="M2942.07 17.6001V232.76H2870.79V17.1602L2942.07 17.6001ZM2906.87 326.48C2883.11 326.48 2863.75 307.12 2863.75 283.8C2863.75 260.04 2883.11 241.12 2906.87 241.12C2930.19 241.12 2949.11 260.04 2949.11 283.8C2949.11 307.12 2930.19 326.48 2906.87 326.48Z" fill="black"/>
<path d="M2735.69 398.64H2667.49L2699.61 308.88L2613.37 86.2402H2691.25L2735.69 212.52L2779.69 86.2402H2851.85L2735.69 398.64Z" fill="black"/>
<path d="M2534.49 321.64V306.24C2518.65 319.44 2495.33 325.6 2472.45 325.6C2398.53 325.6 2350.57 275 2350.57 204.6C2350.57 137.28 2398.09 82.28 2469.37 82.28C2495.77 82.28 2514.69 88 2528.77 96.8V0H2599.61V321.64H2534.49ZM2420.97 203.72C2420.97 236.72 2443.41 262.24 2475.97 262.24C2510.73 262.24 2530.97 236.28 2530.97 203.72C2530.97 170.72 2509.41 144.76 2475.97 144.76C2441.65 144.76 2420.97 170.72 2420.97 203.72Z" fill="black"/>
<path d="M2141.75 243.76C2141.31 197.12 2172.99 166.32 2221.83 166.32C2241.19 166.32 2254.39 170.72 2260.55 174.68V165C2260.55 151.8 2255.27 139.48 2237.67 139.48C2220.95 139.48 2216.11 150.48 2216.11 159.72H2150.55C2151.87 112.2 2179.59 83.5996 2237.23 83.5996C2310.71 83.5996 2330.51 122.76 2330.51 175.56V321.64H2272.43V308.88C2261.43 318.56 2246.47 324.28 2224.03 324.28C2177.83 324.28 2142.19 293.92 2141.75 243.76ZM2208.19 242C2208.19 257.4 2219.63 268.4 2235.03 268.4C2250.43 268.4 2261.87 257.4 2261.87 242C2261.87 226.16 2249.99 216.04 2234.59 216.04C2219.19 216.04 2208.19 227.04 2208.19 242Z" fill="black"/>
<path d="M2127.81 227.039H1970.73C1973.81 249.479 1991.41 263.119 2018.69 263.119C2043.77 263.119 2058.29 248.599 2066.65 235.399L2120.77 267.079C2107.57 294.359 2076.77 325.599 2018.25 325.599C1946.53 325.599 1897.25 280.279 1897.25 205.039C1897.25 134.639 1944.33 82.2793 2012.97 82.2793C2085.13 82.2793 2128.69 129.359 2128.69 199.759C2128.69 206.799 2128.69 215.159 2127.81 227.039ZM2012.97 141.239C1988.33 141.239 1974.25 158.399 1972.49 177.319H2055.21C2053.45 157.959 2038.49 141.239 2012.97 141.239Z" fill="black"/>
<path d="M1879.86 107.8C1879.86 141.68 1865.78 167.64 1841.14 182.6L1910.66 321.64H1831.9L1772.06 196.68H1752.26V321.64H1679.22V17.1602H1783.94C1847.74 17.1602 1879.86 50.1601 1879.86 107.8ZM1777.78 80.5202H1752.26V136.84H1777.78C1794.5 136.84 1804.18 125.4 1804.18 108.24C1804.18 91.5202 1794.06 80.5202 1777.78 80.5202Z" fill="black"/>
<path d="M1588.98 227.039H1431.9C1434.98 249.479 1452.58 263.119 1479.86 263.119C1504.94 263.119 1519.46 248.599 1527.82 235.399L1581.94 267.079C1568.74 294.359 1537.94 325.599 1479.42 325.599C1407.7 325.599 1358.42 280.279 1358.42 205.039C1358.42 134.639 1405.5 82.2793 1474.14 82.2793C1546.3 82.2793 1589.86 129.359 1589.86 199.759C1589.86 206.799 1589.86 215.159 1588.98 227.039ZM1474.14 141.239C1449.5 141.239 1435.42 158.399 1433.66 177.319H1516.38C1514.62 157.959 1499.66 141.239 1474.14 141.239Z" fill="black"/>
<path d="M1163.83 203.72C1163.83 237.6 1185.83 262.24 1219.27 262.24C1254.03 262.24 1273.83 237.16 1273.83 203.72C1273.83 169.84 1252.71 144.76 1218.83 144.76C1183.63 144.76 1163.83 169.84 1163.83 203.72ZM1161.63 305.8V321.64H1095.19V0H1166.03V102.52C1177.91 91.96 1201.23 82.28 1228.51 82.28C1300.23 82.28 1344.23 131.12 1344.23 203.72C1344.23 273.68 1296.71 325.6 1223.67 325.6C1200.35 325.6 1177.03 318.56 1161.63 305.8Z" fill="black"/>
<path d="M947.299 86.2402V232.32C947.299 249.48 954.339 260.92 971.059 260.92C987.339 260.92 996.139 249.48 996.139 232.32V86.2402H1066.98V321.64H996.579V306.68C991.299 312.4 976.339 324.28 949.939 324.28C897.139 324.28 876.459 289.52 876.459 240.68V86.2402H947.299Z" fill="black"/>
<path d="M823.075 235.839L866.195 287.759C840.235 312.399 807.675 327.359 764.995 327.359C663.795 327.359 603.075 258.719 603.075 169.839C603.075 81.8395 666.435 11.4395 763.675 11.4395C809.875 11.4395 842.435 26.3995 866.635 47.5195L823.075 102.959C812.075 92.8394 791.835 80.0795 764.555 80.0795C710.435 80.0795 680.075 119.679 680.075 169.399C680.075 219.559 713.955 258.719 764.995 258.719C790.515 258.719 809.875 247.279 823.075 235.839Z" fill="black"/>
<path d="M521.641 227.039H364.561C367.641 249.479 385.241 263.119 412.521 263.119C437.601 263.119 452.121 248.599 460.481 235.399L514.601 267.079C501.401 294.359 470.601 325.599 412.081 325.599C340.361 325.599 291.081 280.279 291.081 205.039C291.081 134.639 338.161 82.2793 406.801 82.2793C478.961 82.2793 522.521 129.359 522.521 199.759C522.521 206.799 522.521 215.159 521.641 227.039ZM406.801 141.239C382.161 141.239 368.081 158.399 366.321 177.319H449.041C447.281 157.959 432.321 141.239 406.801 141.239Z" fill="black"/>
<path d="M221.351 261.799C240.711 261.799 253.031 252.999 260.511 246.399L299.671 296.559C285.591 309.759 258.751 325.599 220.911 325.599C145.231 325.599 98.1509 272.359 98.1509 204.599C98.1509 136.399 149.191 82.2793 220.031 82.2793C260.071 82.2793 285.591 98.1193 299.671 111.319L260.511 161.479C253.031 154.879 240.271 146.079 220.911 146.079C187.471 146.079 168.551 171.159 168.551 204.159C168.551 240.679 193.631 261.799 221.351 261.799Z" fill="black"/>
<path d="M73.4799 17.1602V321.64H-0.00012207V17.1602H73.4799Z" fill="black"/>
</svg>
