<svg width="2148" height="316" viewBox="0 0 2148 316" fill="none" xmlns="http://www.w3.org/2000/svg">
<path d="M2073.53 103.4C2073.53 84.92 2066.05 69.96 2044.93 69.96C2023.81 69.96 2016.33 84.92 2016.33 103.4V212.52C2016.33 231 2023.81 245.96 2044.93 245.96C2066.05 245.96 2073.53 231 2073.53 212.52V103.4ZM2147.01 103.4V211.64C2147.01 274.56 2110.93 315.92 2044.05 315.92C1974.09 315.92 1942.85 275.44 1942.85 211.64V103.4C1942.85 40.92 1975.41 0 2044.93 0C2112.25 0 2147.01 41.36 2147.01 103.4Z" fill="black"/>
<path d="M1720.89 291.28L1757.85 234.52C1764.01 238.92 1777.21 245.96 1797.45 245.96C1830.89 245.96 1840.13 225.72 1838.81 200.64C1834.85 205.48 1818.57 214.72 1797.01 214.72C1738.93 214.72 1708.57 181.72 1708.57 113.08V102.08C1708.57 46.2 1741.57 0 1809.77 0C1879.73 0 1911.85 40.92 1911.85 102.52V198.44C1911.85 265.32 1882.81 315.92 1799.21 315.92C1757.85 315.92 1734.97 302.28 1720.89 291.28ZM1810.21 146.52C1832.21 146.52 1839.25 131.56 1839.25 113.52V102.52C1839.25 84.04 1831.33 69.08 1809.77 69.08C1788.65 69.08 1781.17 84.04 1781.17 102.52V113.08C1781.17 132.44 1789.09 146.52 1810.21 146.52Z" fill="black"/>
<path d="M1553.48 93.28C1553.48 110.44 1565.36 122.76 1582.52 122.76C1600.12 122.76 1612 110.44 1612 93.28C1612 76.12 1600.12 63.8 1582.52 63.8C1564.92 63.8 1553.48 76.12 1553.48 93.28ZM1480.88 89.76C1480.88 46.64 1509.92 0 1582.52 0C1655.12 0 1684.6 45.76 1684.6 89.76C1684.6 120.12 1671.84 140.36 1654.68 153.56C1676.68 167.64 1689.44 188.32 1689.44 221.76C1689.44 269.72 1657.32 315.04 1582.08 315.92C1506.4 315.04 1476.04 270.16 1476.04 221.76C1476.04 188.76 1491 167.2 1510.36 153.56C1493.64 140.36 1480.88 120.12 1480.88 89.76ZM1550.84 219.12C1550.84 238.48 1564.48 251.24 1582.96 251.24C1602.32 251.24 1615.08 238.48 1615.08 219.12C1615.08 199.76 1602.32 187 1582.96 187C1564.04 187 1550.84 199.76 1550.84 219.12Z" fill="black"/>
<path d="M1464.69 51.9197L1370.09 310.2H1287.81L1377.13 71.2797H1269.77V5.71973H1464.69V51.9197Z" fill="black"/>
<path d="M1250.38 25.08L1213.42 81.4C1207.26 77 1195.82 69.96 1176.9 69.96C1140.82 69.96 1131.58 90.2 1132.46 115.28C1136.42 110.88 1153.58 101.2 1178.66 101.2C1235.86 101.2 1262.7 134.2 1262.7 202.84V213.84C1262.7 269.72 1228.38 315.92 1160.18 315.92C1090.22 315.92 1059.42 275 1059.42 213.4V117.04C1059.42 54.12 1088.46 0 1173.82 0C1214.3 0 1238.06 14.52 1250.38 25.08ZM1161.06 169.4C1139.06 169.4 1132.02 184.36 1132.02 202.4V213.4C1132.02 231.88 1139.5 246.84 1161.06 246.84C1182.18 246.84 1190.1 231.88 1190.1 213.4V202.84C1190.1 183.48 1182.18 169.4 1161.06 169.4Z" fill="black"/>
<path d="M831.253 216.04H903.853C904.733 234.08 913.973 245.96 932.893 245.96C952.693 245.96 961.933 231.44 961.933 211.64V204.6C961.933 184.8 953.573 171.16 932.893 171.16C917.933 171.16 910.453 179.52 907.373 187H836.093V5.71973H1016.93V71.2797H906.493V115.72C910.893 111.32 927.613 102.52 951.373 102.52C1008.13 102.52 1034.53 136.84 1034.53 201.52V212.52C1034.53 265.32 1004.61 315.92 932.893 315.92C858.093 315.92 831.253 272.36 831.253 216.04Z" fill="black"/>
<path d="M807.252 230.56H776.452V310.2H705.172V230.56H575.372V170.28L704.292 5.71973H776.452V167.64H807.252V230.56ZM705.172 98.1197L650.172 167.64H705.172V98.1197Z" fill="black"/>
<path d="M404.828 185.68V128.04L459.388 71.2797H359.948V5.71973H544.308V70.8397L488.427 124.08C524.947 131.56 557.948 154.44 557.948 214.28C557.948 277.2 511.747 315.92 452.348 315.92C368.747 315.92 348.948 260.04 348.948 216.04H421.548C421.548 231.44 430.347 247.28 452.348 247.28C470.388 247.28 482.268 234.52 482.268 216.04C482.268 197.12 471.267 185.68 450.587 185.68H404.828Z" fill="black"/>
<path d="M334.07 310.2H130.79V245.96L224.51 153.12C243.43 134.2 256.63 119.24 256.63 99C256.63 80.08 245.63 69.96 228.47 69.96C207.35 69.96 202.07 88.44 202.07 99.44H129.47C128.15 58.52 147.51 0 228.91 0C297.99 0 332.31 42.24 332.31 95.04C332.31 138.16 312.07 162.8 283.91 189.64L227.15 244.64H334.07V310.2Z" fill="black"/>
<path d="M100.76 5.71973V310.2H27.28V79.6397L0 89.3197V19.7997L32.56 5.71973H100.76Z" fill="black"/>
</svg>
