<svg width="1541" height="316" viewBox="0 0 1541 316" fill="none" xmlns="http://www.w3.org/2000/svg">
<path d="M1533.16 6.15971V221.32H1461.88V5.71973L1533.16 6.15971ZM1497.96 315.04C1474.2 315.04 1454.84 295.68 1454.84 272.36C1454.84 248.6 1474.2 229.68 1497.96 229.68C1521.28 229.68 1540.2 248.6 1540.2 272.36C1540.2 295.68 1521.28 315.04 1497.96 315.04Z" fill="black"/>
<path d="M1328.33 139.92C1328.33 148.72 1334.05 153.56 1347.25 156.2C1357.37 158.4 1367.93 160.16 1375.85 162.36C1416.77 173.8 1435.25 192.72 1435.25 235.4C1435.25 290.84 1392.57 313.28 1345.49 313.28C1275.97 313.28 1255.73 273.68 1257.49 232.76H1324.81C1324.37 244.64 1328.33 257.4 1346.37 257.4C1358.25 257.4 1366.61 252.12 1366.61 242.88C1366.61 233.2 1361.77 228.8 1347.25 225.72C1332.29 222.64 1323.93 220.44 1311.61 216.48C1277.29 204.6 1261.45 180.4 1261.45 145.2C1261.45 99.4398 1298.41 71.7197 1346.81 71.7197C1396.97 71.7197 1430.85 94.1597 1431.29 148.28H1366.61C1366.17 134.2 1359.57 125.4 1345.49 125.4C1334.93 125.4 1328.33 131.12 1328.33 139.92Z" fill="black"/>
<path d="M1138.41 139.92C1138.41 148.72 1144.13 153.56 1157.33 156.2C1167.45 158.4 1178.01 160.16 1185.93 162.36C1226.85 173.8 1245.33 192.72 1245.33 235.4C1245.33 290.84 1202.65 313.28 1155.57 313.28C1086.05 313.28 1065.81 273.68 1067.57 232.76H1134.89C1134.45 244.64 1138.41 257.4 1156.45 257.4C1168.33 257.4 1176.69 252.12 1176.69 242.88C1176.69 233.2 1171.85 228.8 1157.33 225.72C1142.37 222.64 1134.01 220.44 1121.69 216.48C1087.37 204.6 1071.53 180.4 1071.53 145.2C1071.53 99.4398 1108.49 71.7197 1156.89 71.7197C1207.05 71.7197 1240.93 94.1597 1241.37 148.28H1176.69C1176.25 134.2 1169.65 125.4 1155.57 125.4C1145.01 125.4 1138.41 131.12 1138.41 139.92Z" fill="black"/>
<path d="M1055.77 215.6H898.695C901.775 238.04 919.375 251.68 946.655 251.68C971.735 251.68 986.255 237.16 994.615 223.96L1048.73 255.64C1035.53 282.92 1004.73 314.16 946.215 314.16C874.495 314.16 825.215 268.84 825.215 193.6C825.215 123.2 872.295 70.8398 940.935 70.8398C1013.09 70.8398 1056.65 117.92 1056.65 188.32C1056.65 195.36 1056.65 203.72 1055.77 215.6ZM940.935 129.8C916.295 129.8 902.215 146.96 900.455 165.88H983.175C981.415 146.52 966.455 129.8 940.935 129.8Z" fill="black"/>
<path d="M755.485 250.36C774.845 250.36 787.165 241.56 794.645 234.96L833.805 285.12C819.725 298.32 792.885 314.16 755.045 314.16C679.365 314.16 632.285 260.92 632.285 193.16C632.285 124.96 683.325 70.8398 754.165 70.8398C794.205 70.8398 819.725 86.6799 833.805 99.8799L794.645 150.04C787.165 143.44 774.405 134.64 755.045 134.64C721.605 134.64 702.685 159.72 702.685 192.72C702.685 229.24 727.765 250.36 755.485 250.36Z" fill="black"/>
<path d="M562.555 250.36C581.915 250.36 594.235 241.56 601.715 234.96L640.875 285.12C626.795 298.32 599.955 314.16 562.115 314.16C486.435 314.16 439.355 260.92 439.355 193.16C439.355 124.96 490.395 70.8398 561.235 70.8398C601.275 70.8398 626.795 86.6799 640.875 99.8799L601.715 150.04C594.235 143.44 581.475 134.64 562.115 134.64C528.675 134.64 509.755 159.72 509.755 192.72C509.755 229.24 534.835 250.36 562.555 250.36Z" fill="black"/>
<path d="M298.504 74.7998V220.88C298.504 238.04 305.544 249.48 322.264 249.48C338.544 249.48 347.344 238.04 347.344 220.88V74.7998H418.184V310.2H347.784V295.24C342.504 300.96 327.544 312.84 301.144 312.84C248.344 312.84 227.664 278.08 227.664 229.24V74.7998H298.504Z" fill="black"/>
<path d="M76.3861 85.8C76.3861 98.56 83.4261 107.36 104.106 115.28L142.386 130.24C181.986 146.52 205.306 172.92 205.306 218.24C205.306 279.84 161.746 315.92 100.586 315.92C13.4661 315.92 -2.37393 259.16 0.266073 214.72H69.7861C68.9061 234.08 76.3861 253 100.586 253C117.306 253 129.626 243.76 129.626 226.16C129.626 209 117.306 200.64 97.5061 193.16C82.1061 187 66.7061 181.28 49.9861 172.92C19.1861 157.08 2.90607 127.16 2.90607 90.2C2.90607 36.96 41.6261 0 101.026 0C172.746 0 198.706 40.92 195.626 95.04H127.866C128.306 76.12 118.626 62.92 101.466 62.92C84.7461 62.92 76.3861 73.04 76.3861 85.8Z" fill="black"/>
</svg>
