<svg width="877" height="728" viewBox="0 0 877 728" fill="none" xmlns="http://www.w3.org/2000/svg">
<rect width="877" height="728" fill="white"/>
<path fill-rule="evenodd" clip-rule="evenodd" d="M181.06 59.064C212.761 59.064 238.46 84.7622 238.46 116.463C238.46 148.165 212.761 173.863 181.06 173.863C149.359 173.863 123.661 148.165 123.661 116.463C123.661 84.7622 149.359 59.064 181.06 59.064Z" fill="#00CCFF" fill-opacity="0.301961"/>
<path fill-rule="evenodd" clip-rule="evenodd" d="M168.545 106.107C174.882 106.107 180.02 111.244 180.02 117.581C180.02 123.919 174.883 129.057 168.545 129.057C162.207 129.057 157.07 123.92 157.07 117.581C157.07 111.244 162.207 106.107 168.545 106.107Z" fill="white" fill-opacity="0.501961"/>
<path fill-rule="evenodd" clip-rule="evenodd" d="M181.06 59.064C205.851 59.064 226.969 74.7805 234.999 96.7917H127.121C135.15 74.7805 156.269 59.064 181.06 59.064Z" fill="#33CC99" stroke="#33CC99" stroke-width="4" stroke-miterlimit="2.61313"/>
<path d="M181.06 59.0641V38.1951" stroke="#33CC99" stroke-width="4" stroke-miterlimit="2.61313"/>
<path d="M181.06 44.3903C184.482 44.3903 187.255 41.6166 187.255 38.1951C187.255 34.7737 184.482 32 181.06 32C177.639 32 174.865 34.7737 174.865 38.1951C174.865 41.6166 177.639 44.3903 181.06 44.3903Z" fill="#33CC99"/>
<path d="M271.119 322.96H91V351.112H271.119V322.96Z" fill="#33CC99"/>
<path d="M244.027 306.464H118.092V389.267H244.027V306.464Z" fill="#33CC99"/>
<path d="M181.06 354.607C207.649 354.607 229.203 333.052 229.203 306.463C229.203 279.875 207.649 258.32 181.06 258.32C154.471 258.32 132.917 279.875 132.917 306.463C132.917 333.052 154.471 354.607 181.06 354.607Z" fill="#33CC99"/>
<path d="M181.06 335.622C197.164 335.622 210.219 322.567 210.219 306.464C210.219 290.36 197.164 277.305 181.06 277.305C164.956 277.305 151.901 290.36 151.901 306.464C151.901 322.567 164.956 335.622 181.06 335.622Z" fill="#FFCC00"/>
<path d="M181.06 316.024C186.34 316.024 190.621 311.744 190.621 306.464C190.621 301.183 186.34 296.903 181.06 296.903C175.78 296.903 171.499 301.183 171.499 306.464C171.499 311.744 175.78 316.024 181.06 316.024Z" fill="black" stroke="#373435" stroke-width="0.666667" stroke-miterlimit="2.61313"/>
<path d="M109.346 351.112H99.249V419.566H109.346V351.112Z" fill="#333300"/>
<path fill-rule="evenodd" clip-rule="evenodd" d="M187.824 389.267H213.554V470.498H200.689C193.614 470.498 187.824 464.71 187.824 457.633V389.267Z" fill="#333300"/>
<path fill-rule="evenodd" clip-rule="evenodd" d="M174.295 389.267H148.565V470.498H161.43C168.505 470.498 174.295 464.71 174.295 457.633V389.267Z" fill="#333300"/>
<path d="M104.298 420.575C109.328 420.575 113.407 416.497 113.407 411.467C113.407 406.436 109.328 402.358 104.298 402.358C99.2672 402.358 95.189 406.436 95.189 411.467C95.189 416.497 99.2672 420.575 104.298 420.575Z" fill="#333300"/>
<path fill-rule="evenodd" clip-rule="evenodd" d="M104.298 423.983L95.4471 432.834C93.0996 430.486 91.7815 427.303 91.7815 423.983C91.7815 417.069 97.3852 411.467 104.298 411.467C111.21 411.467 116.814 417.07 116.814 423.983C116.814 427.302 115.495 430.486 113.148 432.834L104.298 423.983Z" fill="#66FFCC"/>
<path d="M104.298 408.191C108.435 408.191 111.79 404.837 111.79 400.699C111.79 396.562 108.435 393.207 104.298 393.207C100.16 393.207 96.8059 396.562 96.8059 400.699C96.8059 404.837 100.16 408.191 104.298 408.191Z" fill="#333300"/>
<path d="M261.974 351.112H251.877V419.566H261.974V351.112Z" fill="#333300"/>
<path d="M256.925 420.575C261.956 420.575 266.034 416.497 266.034 411.467C266.034 406.436 261.956 402.358 256.925 402.358C251.894 402.358 247.816 406.436 247.816 411.467C247.816 416.497 251.894 420.575 256.925 420.575Z" fill="#333300"/>
<path fill-rule="evenodd" clip-rule="evenodd" d="M256.925 423.983L248.074 432.834C245.727 430.486 244.409 427.303 244.409 423.983C244.409 417.069 250.012 411.467 256.925 411.467C263.838 411.467 269.441 417.07 269.441 423.983C269.441 427.302 268.122 430.486 265.776 432.834L256.925 423.983Z" fill="#66FFCC"/>
<path d="M256.925 408.191C261.063 408.191 264.417 404.837 264.417 400.699C264.417 396.562 261.063 393.207 256.925 393.207C252.787 393.207 249.433 396.562 249.433 400.699C249.433 404.837 252.787 408.191 256.925 408.191Z" fill="#333300"/>
<path d="M95.1911 322.96H91V351.112H95.1911V322.96Z" fill="#FFCC00"/>
<path d="M271.119 322.96H266.928V351.112H271.119V322.96Z" fill="#FFCC00"/>
<path fill-rule="evenodd" clip-rule="evenodd" d="M149.541 470.498H123.877C123.877 456.382 135.426 444.835 149.541 444.835V470.498Z" fill="#333300"/>
<path fill-rule="evenodd" clip-rule="evenodd" d="M212.376 470.498H238.04C238.04 456.382 226.491 444.835 212.376 444.835V470.498Z" fill="#333300"/>
<path d="M515.174 538.434H384.959V558.786H515.174V538.434Z" fill="#33CC99"/>
<path d="M495.588 526.508H404.545V586.369H495.588V526.508Z" fill="#33CC99"/>
<path d="M450.066 561.313C469.289 561.313 484.871 545.73 484.871 526.508C484.871 507.285 469.289 491.703 450.066 491.703C430.844 491.703 415.262 507.285 415.262 526.508C415.262 545.73 430.844 561.313 450.066 561.313Z" fill="#33CC99"/>
<path d="M450.066 547.587C461.708 547.587 471.146 538.149 471.146 526.508C471.146 514.866 461.708 505.428 450.066 505.428C438.425 505.428 428.987 514.866 428.987 526.508C428.987 538.149 438.425 547.587 450.066 547.587Z" fill="#FFCC00"/>
<path d="M450.066 533.419C453.884 533.419 456.978 530.325 456.978 526.508C456.978 522.69 453.884 519.596 450.066 519.596C446.249 519.596 443.155 522.69 443.155 526.508C443.155 530.325 446.249 533.419 450.066 533.419Z" fill="black" stroke="#373435" stroke-width="0.666667" stroke-miterlimit="2.61313"/>
<path d="M398.221 558.786H390.922V608.274H398.221V558.786Z" fill="#333300"/>
<path fill-rule="evenodd" clip-rule="evenodd" d="M454.957 586.37H473.558V645.095H464.257C459.143 645.095 454.958 640.91 454.958 635.795V586.37H454.957Z" fill="#333300"/>
<path fill-rule="evenodd" clip-rule="evenodd" d="M445.176 586.37H426.575V645.095H435.875C440.99 645.095 445.175 640.91 445.175 635.795V586.37H445.176Z" fill="#333300"/>
<path d="M394.571 609.005C398.208 609.005 401.157 606.056 401.157 602.419C401.157 598.782 398.208 595.834 394.571 595.834C390.934 595.834 387.986 598.782 387.986 602.419C387.986 606.056 390.934 609.005 394.571 609.005Z" fill="#333300"/>
<path fill-rule="evenodd" clip-rule="evenodd" d="M394.571 611.468L388.173 617.866C386.477 616.169 385.523 613.867 385.523 611.468C385.523 606.47 389.573 602.419 394.571 602.419C399.569 602.419 403.62 606.47 403.62 611.468C403.62 613.867 402.667 616.169 400.97 617.866L394.571 611.468Z" fill="#66FFCC"/>
<path d="M394.571 600.05C397.562 600.05 399.987 597.626 399.987 594.635C399.987 591.644 397.562 589.219 394.571 589.219C391.58 589.219 389.156 591.644 389.156 594.635C389.156 597.626 391.58 600.05 394.571 600.05Z" fill="#333300"/>
<path d="M508.562 558.786H501.264V608.274H508.562V558.786Z" fill="#333300"/>
<path d="M504.913 609.005C508.55 609.005 511.498 606.056 511.498 602.419C511.498 598.782 508.55 595.834 504.913 595.834C501.276 595.834 498.328 598.782 498.328 602.419C498.328 606.056 501.276 609.005 504.913 609.005Z" fill="#333300"/>
<path fill-rule="evenodd" clip-rule="evenodd" d="M504.913 611.468L498.515 617.866C496.817 616.169 495.864 613.867 495.864 611.468C495.864 606.47 499.915 602.419 504.913 602.419C509.91 602.419 513.962 606.47 513.962 611.468C513.962 613.867 513.009 616.169 511.311 617.866L504.913 611.468Z" fill="#66FFCC"/>
<path d="M504.913 600.05C507.904 600.05 510.329 597.626 510.329 594.635C510.329 591.644 507.904 589.219 504.913 589.219C501.922 589.219 499.497 591.644 499.497 594.635C499.497 597.626 501.922 600.05 504.913 600.05Z" fill="#333300"/>
<path d="M387.989 538.434H384.959V558.786H387.989V538.434Z" fill="#FFCC00"/>
<path d="M515.175 538.434H512.145V558.786H515.175V538.434Z" fill="#FFCC00"/>
<path fill-rule="evenodd" clip-rule="evenodd" d="M427.281 645.095H408.728C408.728 634.891 417.077 626.542 427.281 626.542V645.095Z" fill="#333300"/>
<path fill-rule="evenodd" clip-rule="evenodd" d="M472.706 645.095H491.259C491.259 634.891 482.91 626.542 472.706 626.542V645.095Z" fill="#333300"/>
<path fill-rule="evenodd" clip-rule="evenodd" d="M450.066 485.012C472.984 485.012 491.562 503.59 491.562 526.508C491.562 549.425 472.984 568.005 450.066 568.005C427.149 568.005 408.57 549.426 408.57 526.508C408.57 503.59 427.149 485.012 450.066 485.012Z" fill="#00CCFF" fill-opacity="0.301961"/>
<path fill-rule="evenodd" clip-rule="evenodd" d="M441.019 519.02C445.601 519.02 449.314 522.734 449.314 527.316C449.314 531.898 445.601 535.611 441.019 535.611C436.436 535.611 432.723 531.897 432.723 527.316C432.723 522.733 436.437 519.02 441.019 519.02Z" fill="white" fill-opacity="0.501961"/>
<path fill-rule="evenodd" clip-rule="evenodd" d="M450.066 485.012C467.988 485.012 483.255 496.373 489.061 512.287H411.072C416.877 496.373 432.146 485.012 450.067 485.012H450.066Z" fill="#33CC99" stroke="#33CC99" stroke-width="4" stroke-miterlimit="2.61313"/>
<path d="M450.066 485.012V469.924" stroke="#33CC99" stroke-width="4" stroke-miterlimit="2.61313"/>
<path d="M450.066 474.403C452.54 474.403 454.545 472.398 454.545 469.924C454.545 467.451 452.54 465.446 450.066 465.446C447.593 465.446 445.588 467.451 445.588 469.924C445.588 472.398 447.593 474.403 450.066 474.403Z" fill="#33CC99"/>
<path fill-rule="evenodd" clip-rule="evenodd" d="M451.477 449.911C509.574 449.911 556.67 497.008 556.67 555.104C556.67 613.201 509.574 660.297 451.477 660.297C393.38 660.297 346.284 613.201 346.284 555.104C346.284 497.008 393.38 449.911 451.477 449.911Z" fill="#99FFFF" fill-opacity="0.501961"/>
<path d="M451.477 663.463C603.675 663.463 727.057 642.719 727.057 617.13C727.057 591.54 603.675 570.796 451.477 570.796C299.279 570.796 175.897 591.54 175.897 617.13C175.897 642.719 299.279 663.463 451.477 663.463Z" fill="#33CC99"/>
<path fill-rule="evenodd" clip-rule="evenodd" d="M727.057 617.13C727.057 642.719 603.675 663.463 451.477 663.463C299.279 663.463 175.897 642.719 175.897 617.13H727.058H727.057Z" fill="#333300"/>
<path d="M446.323 623.639C449.917 623.639 452.832 620.725 452.832 617.13C452.832 613.535 449.917 610.62 446.323 610.62C442.728 610.62 439.813 613.535 439.813 617.13C439.813 620.725 442.728 623.639 446.323 623.639Z" fill="#FFCC00"/>
<path d="M515.197 623.639C518.791 623.639 521.706 620.725 521.706 617.13C521.706 613.535 518.791 610.62 515.197 610.62C511.602 610.62 508.687 613.535 508.687 617.13C508.687 620.725 511.602 623.639 515.197 623.639Z" fill="#FFCC00"/>
<path d="M380.354 623.639C383.949 623.639 386.863 620.725 386.863 617.13C386.863 613.535 383.949 610.62 380.354 610.62C376.759 610.62 373.845 613.535 373.845 617.13C373.845 620.725 376.759 623.639 380.354 623.639Z" fill="#FFCC00"/>
<path d="M571.303 623.639C574.898 623.639 577.812 620.725 577.812 617.13C577.812 613.535 574.898 610.62 571.303 610.62C567.708 610.62 564.794 613.535 564.794 617.13C564.794 620.725 567.708 623.639 571.303 623.639Z" fill="#FFCC00"/>
<path d="M321.147 623.639C324.741 623.639 327.656 620.725 327.656 617.13C327.656 613.535 324.741 610.62 321.147 610.62C317.552 610.62 314.637 613.535 314.637 617.13C314.637 620.725 317.552 623.639 321.147 623.639Z" fill="#FFCC00"/>
<path fill-rule="evenodd" clip-rule="evenodd" d="M672.765 122.19C729.059 122.19 774.694 167.825 774.694 224.119C774.694 280.413 729.059 326.048 672.765 326.048C616.471 326.048 570.836 280.413 570.836 224.119C570.836 167.825 616.471 122.19 672.765 122.19Z" fill="#99FFFF" fill-opacity="0.301961"/>
<path fill-rule="evenodd" clip-rule="evenodd" d="M672.765 129.662C724.933 129.662 767.222 171.951 767.222 224.119C767.222 276.287 724.933 318.577 672.765 318.577C620.597 318.577 578.307 276.287 578.307 224.119C578.307 171.951 620.597 129.662 672.765 129.662Z" fill="#99FFFF" fill-opacity="0.8"/>
<path d="M672.765 313.04C721.874 313.04 761.686 273.229 761.686 224.119C761.686 175.01 721.874 135.198 672.765 135.198C623.655 135.198 583.844 175.01 583.844 224.119C583.844 273.229 623.655 313.04 672.765 313.04Z" fill="#00CCFF"/>
<path fill-rule="evenodd" clip-rule="evenodd" d="M716.612 301.491C703.672 308.84 688.71 313.041 672.766 313.041C658.331 313.041 644.701 309.598 632.647 303.493C641.991 298.286 654.83 294.664 666.347 293.88C684.784 292.626 699.834 298.647 713.191 300.967C714.343 301.167 715.481 301.339 716.613 301.49L716.612 301.491ZM756.339 254.557C752.274 265.715 746.036 275.826 738.141 284.387C729.863 282.095 720.955 279.483 712.635 277.728C692.129 273.401 675.198 274.279 660.038 275.119C644.879 275.96 631.49 276.761 618.824 282.531C615.857 283.881 612.931 285.505 610.069 287.173C601.428 278.582 594.543 268.228 590 256.693C600.853 250.138 615.707 245.533 629.484 244.492C650.241 242.924 668.552 249.446 683.602 248.944C698.652 248.442 710.442 240.917 723.547 240.792C734.742 240.684 746.897 245.978 756.34 254.558L756.339 254.557ZM754.223 188.42C759.019 199.348 761.687 211.421 761.687 224.12C761.687 225.599 761.648 227.069 761.578 228.531C744.652 226.438 727.868 219.151 712.916 218.582C695.859 217.932 681.185 226.025 664.881 229.122C648.577 232.22 630.642 230.321 610.324 231.62C601.71 232.171 592.667 233.296 584.406 234.105C584.04 230.826 583.845 227.495 583.845 224.119C583.845 213.178 585.826 202.699 589.44 193.018C596.995 190.559 604.926 189.367 612.331 190.105C628.887 191.753 642.807 203.044 653.656 202.944C664.505 202.844 672.281 191.355 683.443 183.811C694.605 176.267 709.153 172.671 718.999 175.419C728.844 178.166 733.986 187.258 747.28 188.408C749.406 188.592 751.741 188.571 754.223 188.42ZM672.766 135.198C691.57 135.198 709.007 141.04 723.371 151.001C722.861 151.177 722.355 151.347 721.853 151.51C705.298 156.904 693.635 155.524 680.277 157.844C666.92 160.164 651.869 166.184 633.433 164.93C626.045 164.427 618.113 162.755 610.908 160.247C626.913 144.744 648.723 135.198 672.765 135.198H672.766Z" fill="#66FFCC" fill-opacity="0.501961"/>
</svg>
