<svg xmlns="http://www.w3.org/2000/svg" width="210" height="35" viewBox="0 0 210 35" version="1.1"><g ><g><path d="M40.7 8.8L44.2 8.8 44.2 25.9 40.7 25.9 40.7 8.8 40.7 8.8ZM49.7 15.3L49.8 15.3C50.2 14.6 50.7 14.2 51.2 13.8 51.8 13.5 52.5 13.4 53.3 13.4 54 13.4 54.5 13.4 55.1 13.7 55.6 13.9 56 14.2 56.4 14.6 56.8 15 57.1 15.5 57.3 16.1 57.5 16.7 57.5 17.2 57.5 17.9L57.5 25.9 54.3 25.9 54.3 18.4C54.3 17.7 54.1 17.2 53.8 16.8 53.4 16.3 52.9 16.1 52.2 16.1 51.5 16.1 50.9 16.4 50.4 16.9 49.9 17.4 49.7 18.1 49.7 18.9L49.7 25.9 46.5 25.9 46.5 13.6 49.6 13.6 49.6 15.3 49.7 15.3 49.7 15.3ZM64.5 26.3C62.8 26.3 61.4 25.9 60.4 25.1 59.5 24.3 58.9 23.2 58.8 21.9L61.8 21.9C61.9 22.7 62.2 23.2 62.7 23.5 63.2 23.8 63.8 24 64.5 24 65.2 24 65.8 23.8 66.2 23.6 66.6 23.3 66.8 23 66.8 22.6 66.8 22.3 66.7 22 66.5 21.9 66.3 21.7 66.1 21.6 65.8 21.5 65.5 21.4 65.1 21.3 64.8 21.2 64.4 21.1 64 21 63.6 20.9 63 20.8 62.5 20.7 61.9 20.6 61.4 20.4 61 20.2 60.6 19.9 60.2 19.6 59.8 19.3 59.6 18.9 59.4 18.4 59.2 17.9 59.2 17.2 59.2 16.6 59.4 16 59.6 15.5 59.8 15 60.2 14.6 60.7 14.3 61.1 14 61.6 13.7 62.2 13.6 62.9 13.4 63.5 13.4 64.2 13.4 65.8 13.4 67.1 13.7 67.9 14.5 68.8 15.2 69.3 16.2 69.4 17.4L66.5 17.4C66.4 16.8 66.2 16.3 65.8 16 65.4 15.8 64.8 15.7 64.1 15.7 63.5 15.7 63 15.8 62.6 16 62.2 16.2 62 16.6 62 17 62 17.3 62.1 17.5 62.3 17.6 62.5 17.8 62.8 17.9 63.1 18 63.4 18.1 63.8 18.2 64.1 18.2 64.5 18.3 65 18.4 65.4 18.5 65.9 18.6 66.4 18.7 66.9 18.9 67.4 19 67.9 19.2 68.3 19.5 68.7 19.8 69.1 20.1 69.3 20.6 69.5 21 69.7 21.7 69.7 22.4 69.7 23 69.5 23.5 69.3 24.1 69.1 24.5 68.7 25 68.3 25.3 67.8 25.6 67.3 25.9 66.6 26.1 66 26.2 65.3 26.3 64.5 26.3L64.5 26.3ZM71.1 8.8L74.4 8.8 74.4 11.7 71.1 11.7 71.1 8.8 71.1 8.8ZM71.1 13.6L74.4 13.6 74.4 25.9 71.1 25.9 71.1 13.6 71.1 13.6ZM81 26.3C80.3 26.3 79.6 26.1 78.9 25.8 78.3 25.5 77.7 25.1 77.3 24.5 76.9 24 76.5 23.3 76.2 22.5 76 21.7 75.9 20.8 75.9 19.8 75.9 18.9 76 18 76.2 17.2 76.5 16.4 76.9 15.7 77.3 15.2 77.8 14.6 78.3 14.2 79 13.8 79.6 13.5 80.4 13.4 81.1 13.4 82 13.4 82.7 13.5 83.2 13.9 83.8 14.2 84.2 14.6 84.6 15.2L84.6 15.2 84.6 8.8 87.9 8.8 87.9 25.9 84.7 25.9 84.7 24.3 84.7 24.3C84.3 24.9 83.8 25.4 83.3 25.7 82.6 26.1 81.9 26.3 81 26.3L81 26.3ZM81.7 23.5C82.7 23.5 83.4 23.2 83.9 22.5 84.4 21.8 84.7 21 84.7 19.8 84.7 19.3 84.6 18.7 84.5 18.2 84.4 17.8 84.2 17.4 84 17 83.8 16.7 83.5 16.4 83.2 16.2 82.8 16 82.4 15.9 81.8 15.9 80.9 15.9 80.3 16.2 79.8 17 79.4 17.7 79.2 18.6 79.2 19.7 79.2 20.9 79.4 21.8 79.8 22.5 80.3 23.2 80.9 23.5 81.7 23.5L81.7 23.5ZM95.6 26.3C94.6 26.3 93.7 26.1 93 25.8 92.2 25.4 91.5 25 91 24.4 90.4 23.8 90 23.1 89.7 22.3 89.4 21.5 89.3 20.7 89.3 19.8 89.3 18.9 89.4 18 89.7 17.2 90 16.5 90.4 15.8 91 15.2 91.5 14.6 92.1 14.2 92.9 13.9 93.6 13.5 94.4 13.4 95.3 13.4 96.3 13.4 97.2 13.6 97.9 13.9 98.7 14.3 99.3 14.8 99.8 15.5 100.3 16.1 100.7 16.9 100.9 17.8 101.1 18.7 101.3 19.7 101.3 20.7L92.4 20.7C92.6 21.7 92.9 22.4 93.4 23 93.9 23.5 94.6 23.8 95.6 23.8 96.2 23.8 96.7 23.7 97.1 23.4 97.5 23.1 97.8 22.8 97.9 22.3L101.1 22.3C101 22.9 100.8 23.4 100.5 23.9 100.2 24.3 99.8 24.8 99.3 25.2 98.9 25.5 98.3 25.8 97.7 26 97.1 26.1 96.4 26.3 95.6 26.3L95.6 26.3ZM95.4 15.8C94.5 15.8 93.9 16 93.4 16.5 93 17 92.7 17.6 92.5 18.4L97.9 18.4C97.9 17.7 97.7 17 97.2 16.5 96.7 16 96.1 15.8 95.4 15.8L95.4 15.8ZM102.5 22.4L106 22.4 106 25.9 102.5 25.9 102.5 22.4 102.5 22.4Z" fill="#000000"/><path d="M113.2 8.8L116.8 8.8 122.8 25.9 119.2 25.9 118 22.2 111.9 22.2 110.8 25.9 107.3 25.9 113.2 8.8 113.2 8.8 113.2 8.8ZM112.7 19.6L117.2 19.6 115.6 14.7C115.5 14.5 115.5 14.2 115.4 13.9 115.3 13.6 115.2 13.4 115.2 13.1 115.1 12.7 115 12.4 114.9 12.1L114.9 12.1C114.8 12.4 114.7 12.8 114.6 13.1 114.5 13.4 114.5 13.6 114.4 13.9 114.3 14.2 114.2 14.5 114.1 14.7L112.7 19.6 112.7 19.6ZM127 15.6L127.1 15.6C127.4 14.9 127.8 14.4 128.3 14 128.8 13.7 129.4 13.5 130.1 13.5 130.4 13.5 130.6 13.5 130.8 13.6L130.8 16.4 130.8 16.4C129.7 16.3 128.9 16.5 128.2 17.1 127.5 17.7 127.2 18.6 127.2 19.9L127.2 25.8 123.9 25.8 123.9 13.6 127 13.6 127 15.6 127 15.6ZM131.6 13.6L133.3 13.6 133.3 9.8 136.5 9.8 136.5 13.6 138.6 13.6 138.6 15.8 136.5 15.8 136.5 22.3C136.5 22.8 136.6 23 136.8 23.2 137 23.4 137.3 23.5 137.7 23.5L138.3 23.5 138.6 23.5 138.6 25.9 138.1 25.9 137.5 25.9 136.6 25.9C136.2 25.9 135.9 25.8 135.4 25.7 135 25.6 134.7 25.5 134.4 25.3 134 25 133.8 24.7 133.6 24.3 133.4 24 133.3 23.5 133.3 22.9L133.3 15.7 131.6 15.7 131.6 13.6 131.6 13.6 131.6 13.6ZM147.9 26.3C146.8 26.3 145.7 26 144.6 25.6 143.6 25.2 142.8 24.5 142.1 23.8 141.4 23 140.8 22 140.4 21 140 19.9 139.8 18.7 139.8 17.4 139.8 16.2 140 15 140.3 13.9 140.7 12.8 141.3 11.9 142 11.1 142.7 10.3 143.5 9.7 144.6 9.2 145.6 8.8 146.7 8.6 147.9 8.6 149 8.6 149.9 8.7 150.8 9 151.6 9.3 152.3 9.7 152.9 10.2 153.4 10.7 153.9 11.3 154.3 12 154.6 12.7 154.9 13.4 155 14.3L151.5 14.3C151.4 13.4 151 12.7 150.4 12.2 149.8 11.7 149 11.4 147.9 11.4 147.1 11.4 146.5 11.6 145.9 11.9 145.3 12.2 144.8 12.6 144.5 13.2 144.1 13.7 143.8 14.4 143.6 15.1 143.4 15.8 143.3 16.7 143.3 17.5 143.3 18.3 143.4 19.2 143.6 19.9 143.8 20.6 144.2 21.2 144.6 21.8 144.9 22.3 145.5 22.8 146 23 146.6 23.3 147.3 23.5 148 23.5 149 23.5 149.9 23.2 150.5 22.7 151.2 22.1 151.5 21.4 151.6 20.5L155 20.5C155 21.3 154.8 22 154.5 22.7 154.2 23.3 153.7 24 153.2 24.5 152.6 25.1 151.9 25.5 151.1 25.9 150.1 26.1 149.1 26.3 147.9 26.3L147.9 26.3ZM162.3 26.3C161.3 26.3 160.4 26.1 159.7 25.8 158.9 25.4 158.2 25 157.7 24.4 157.1 23.8 156.7 23.1 156.4 22.3 156.1 21.5 156 20.7 156 19.8 156 18.9 156.1 18 156.4 17.2 156.7 16.5 157.1 15.8 157.7 15.2 158.2 14.6 158.8 14.2 159.6 13.9 160.3 13.5 161.1 13.4 162 13.4 163 13.4 163.9 13.6 164.6 13.9 165.3 14.3 166 14.8 166.4 15.5 167 16.1 167.4 16.9 167.6 17.8 167.8 18.7 168 19.7 168 20.7L159.1 20.7C159.3 21.7 159.6 22.4 160.1 23 160.6 23.5 161.3 23.8 162.2 23.8 162.9 23.8 163.4 23.7 163.8 23.4 164.2 23.1 164.4 22.8 164.6 22.3L167.8 22.3C167.7 22.9 167.5 23.4 167.2 23.9 166.9 24.3 166.5 24.8 166 25.2 165.5 25.5 165 25.8 164.3 26 163.8 26.1 163.1 26.3 162.3 26.3L162.3 26.3ZM162.1 15.8C161.2 15.8 160.6 16 160.1 16.5 159.7 17 159.4 17.6 159.3 18.4L164.7 18.4C164.6 17.7 164.4 17 163.9 16.5 163.4 16 162.8 15.8 162.1 15.8L162.1 15.8ZM172.7 15.3L172.8 15.3C173.2 14.6 173.7 14.2 174.2 13.8 174.8 13.5 175.5 13.4 176.3 13.4 177 13.4 177.5 13.4 178.1 13.7 178.6 13.9 179 14.2 179.4 14.6 179.8 15 180.1 15.5 180.3 16.1 180.5 16.7 180.6 17.2 180.6 17.9L180.6 25.9 177.3 25.9 177.3 18.4C177.3 17.7 177.1 17.2 176.8 16.8 176.4 16.3 175.9 16.1 175.2 16.1 174.5 16.1 173.9 16.4 173.4 16.9 173 17.4 172.7 18.1 172.7 18.9L172.7 25.9 169.5 25.9 169.5 13.6 172.6 13.6 172.6 15.3 172.7 15.3 172.7 15.3ZM181.7 13.6L183.3 13.6 183.3 9.8 186.5 9.8 186.5 13.6 188.6 13.6 188.6 15.8 186.5 15.8 186.5 22.3C186.5 22.8 186.6 23 186.8 23.2 187.1 23.4 187.3 23.5 187.7 23.5L188.3 23.5 188.6 23.5 188.6 25.9 188.1 25.9 187.5 25.9 186.6 25.9C186.2 25.9 185.8 25.8 185.4 25.7 185 25.6 184.7 25.5 184.4 25.3 184 25 183.8 24.7 183.6 24.3 183.4 24 183.3 23.5 183.3 22.9L183.3 15.7 181.7 15.7 181.7 13.6 181.7 13.6 181.7 13.6ZM195.8 26.3C194.8 26.3 193.9 26.1 193.2 25.8 192.4 25.4 191.7 25 191.2 24.4 190.6 23.8 190.2 23.1 189.9 22.3 189.6 21.5 189.5 20.7 189.5 19.8 189.5 18.9 189.6 18 189.9 17.2 190.2 16.5 190.6 15.8 191.2 15.2 191.7 14.6 192.3 14.2 193.1 13.9 193.8 13.5 194.6 13.4 195.5 13.4 196.5 13.4 197.4 13.6 198.1 13.9 198.9 14.3 199.5 14.8 200 15.5 200.5 16.1 200.9 16.9 201.1 17.8 201.3 18.7 201.5 19.7 201.5 20.7L192.6 20.7C192.8 21.7 193.1 22.4 193.6 23 194.1 23.5 194.8 23.8 195.8 23.8 196.4 23.8 196.9 23.7 197.3 23.4 197.7 23.1 198 22.8 198.1 22.3L201.3 22.3C201.2 22.9 201 23.4 200.7 23.9 200.4 24.3 200 24.8 199.5 25.2 199.1 25.5 198.5 25.8 197.9 26 197.3 26.1 196.6 26.3 195.8 26.3L195.8 26.3ZM195.6 15.8C194.7 15.8 194.1 16 193.6 16.5 193.2 17 192.9 17.6 192.7 18.4L198.1 18.4C198.1 17.7 197.9 17 197.4 16.5 196.9 16 196.3 15.8 195.6 15.8L195.6 15.8ZM206.1 15.6L206.2 15.6C206.6 14.9 206.9 14.4 207.4 14 207.9 13.7 208.5 13.5 209.2 13.5 209.5 13.5 209.8 13.5 210 13.6L210 16.4 209.9 16.4C208.9 16.3 208 16.5 207.3 17.1 206.6 17.7 206.3 18.6 206.3 19.9L206.3 25.8 203 25.8 203 13.6 206.1 13.6 206.1 15.6 206.1 15.6Z" fill="#797979"/><circle fill="#FC4600" cx="17.5" cy="17.5" r="17.5"/></g></g></svg>